<svg id="Layer_2" data-name="Layer 2" xmlns="http://www.w3.org/2000/svg" xmlns:xlink="http://www.w3.org/1999/xlink" viewBox="0 0 785.03 739.36"><defs><style>.cls-1{fill:#f69;}.cls-1,.cls-3,.cls-4{stroke:#5a2b10;}.cls-1,.cls-11,.cls-12,.cls-3,.cls-4,.cls-5,.cls-6,.cls-7,.cls-8,.cls-9{stroke-miterlimit:10;}.cls-2{fill:#5a2b10;}.cls-3{fill:#3cf;}.cls-4{fill:#cf6;}.cls-5{fill:#ecbca5;opacity:0.65;}.cls-11,.cls-12,.cls-5,.cls-6,.cls-9{stroke:#231f20;}.cls-6{fill:url(#radial-gradient);}.cls-7{fill:#2d292a;}.cls-7,.cls-8{stroke:#333;}.cls-7,.cls-8,.cls-9{stroke-width:0.25px;}.cls-10,.cls-12,.cls-8{fill:#231f20;}.cls-9{fill:#f37981;}.cls-11{fill:url(#radial-gradient-2);}</style><radialGradient id="radial-gradient" cx="319.39" cy="498.88" r="25.16" gradientTransform="translate(-27.48 7.91) rotate(-3.61)" gradientUnits="userSpaceOnUse"><stop offset="0.6" stop-color="#fff"/><stop offset="0.68" stop-color="#f6f6f6"/><stop offset="0.82" stop-color="#dcdcdc"/><stop offset="1" stop-color="#b3b3b3"/></radialGradient><radialGradient id="radial-gradient-2" cx="186.89" cy="484.67" r="25.2" gradientTransform="matrix(-1.19, -0.38, -0.4, 1.12, 886.4, 24.85)" xlink:href="#radial-gradient"/></defs><g id="flowers"><path class="cls-1" d="M665.49,290.42l-21,9.82a11.48,11.48,0,0,1-11.47-1l-19-13.24a11.49,11.49,0,0,1-4.89-10.42l2-23.07a11.49,11.49,0,0,1,6.59-9.44l21-9.83a11.51,11.51,0,0,1,11.47,1l19,13.24A11.49,11.49,0,0,1,674,257.9l-2,23.07A11.53,11.53,0,0,1,665.49,290.42Z" transform="translate(-151.81 -54.69)"/><path class="cls-1" d="M789.76,160.37l-21,9.83a11.48,11.48,0,0,1-11.47-1l-19-13.24a11.51,11.51,0,0,1-4.88-10.42l2-23.07a11.5,11.5,0,0,1,6.58-9.44l21-9.83a11.51,11.51,0,0,1,11.47,1l19,13.24a11.51,11.51,0,0,1,4.89,10.42l-2,23.07A11.49,11.49,0,0,1,789.76,160.37Z" transform="translate(-151.81 -54.69)"/><path class="cls-1" d="M833.4,493l-21,9.82a11.48,11.48,0,0,1-11.47-1l-19-13.24a11.51,11.51,0,0,1-4.88-10.42l2-23.07a11.5,11.5,0,0,1,6.58-9.44l21-9.83a11.5,11.5,0,0,1,11.47,1l19,13.24A11.51,11.51,0,0,1,842,460.43l-2,23.07A11.53,11.53,0,0,1,833.4,493Z" transform="translate(-151.81 -54.69)"/><path class="cls-2" d="M286,755.62a8,8,0,0,0,1.64,4,10.17,10.17,0,0,0,2.93,2.56,12.36,12.36,0,0,0,3.56,1.38,25.63,25.63,0,0,0,3.85.46,124.12,124.12,0,0,0,16.25,0,251.65,251.65,0,0,0,33.53-4.62,457,457,0,0,0,66.33-19.1A517.41,517.41,0,0,0,477.45,712c20.41-10.91,40.18-23.17,58.25-37.56a258.4,258.4,0,0,0,25.62-23.17,172.15,172.15,0,0,0,21.33-26.89,117.73,117.73,0,0,0,8.11-15c1.16-2.59,2.22-5.23,3.18-7.9s1.75-5.38,2.57-8.2c3.24-11.16,6-22.48,8.11-33.91a299.57,299.57,0,0,0,4.88-69.46,269.09,269.09,0,0,0-4.09-34.65c-1.06-5.72-2.35-11.4-3.79-17-.72-2.83-1.48-5.65-2.24-8.48-.38-1.42-.76-2.84-1.12-4.31-.17-.73-.34-1.47-.48-2.27a11.37,11.37,0,0,1-.17-1.28,4.71,4.71,0,0,1,.15-1.87l3.8,1.25c.05-.24,0,.07,0,.3a8.65,8.65,0,0,0,.13.91c.11.65.27,1.34.43,2,.34,1.38.72,2.79,1.09,4.2.76,2.83,1.53,5.67,2.26,8.53q2.19,8.56,3.86,17.28a273.38,273.38,0,0,1,4.49,35.14A301.47,301.47,0,0,1,614,525a344.57,344.57,0,0,1-3.82,35.25c-1.87,11.67-4.34,23.26-7.34,34.7-.74,2.83-1.53,5.76-2.48,8.64s-2,5.71-3.19,8.5A137.74,137.74,0,0,1,589,628.24a180.87,180.87,0,0,1-21.44,28.82,267,267,0,0,1-25.78,24.8,414.33,414.33,0,0,1-58.42,40.77,544.7,544.7,0,0,1-63.82,31.63,473.21,473.21,0,0,1-67.81,23,267.91,267.91,0,0,1-35.86,6.64,145,145,0,0,1-18.9.88c-1.62,0-3.25-.17-4.92-.16a51.51,51.51,0,0,0-5.17.27c-1.78.19-3.66.45-5.68.83s-4.21.78-6.78,1.5Z" transform="translate(-151.81 -54.69)"/><path class="cls-2" d="M626.86,629.17a8.92,8.92,0,0,0,4.7,0,7.8,7.8,0,0,0,2-.73,12.61,12.61,0,0,0,1.83-1.05,14.42,14.42,0,0,0,3-2.94c.43-.55.82-1.14,1.21-1.73l1.11-1.83a146.38,146.38,0,0,0,8.14-15.73,302.58,302.58,0,0,0,12.68-34.42A544.29,544.29,0,0,0,678.06,498a620.93,620.93,0,0,0,7.12-74.58c.84-25,0-50-3.41-74.73a271.12,271.12,0,0,0-7.52-36.49,178,178,0,0,0-5.88-17.6,144.66,144.66,0,0,0-7.75-16.76,134.25,134.25,0,0,0-22.13-29.44,137.54,137.54,0,0,0-29.44-22.39,168.25,168.25,0,0,0-34.32-14.45A218.54,218.54,0,0,0,538.05,204a305.45,305.45,0,0,0-37.54-2.14c-6.28,0-12.57.23-18.85.52l-9.46.46c-1.59.07-3.17.15-4.79.18-.81,0-1.64,0-2.49,0-.45,0-.85,0-1.38-.11l-.37-.06c-.13,0-.32-.07-.47-.11l-.25-.07a1.49,1.49,0,0,1-.31-.12,3.75,3.75,0,0,1-.82-.54l2.78-2.87a.67.67,0,0,0-.31-.24h0a.29.29,0,0,0,.1,0l.21,0c.25,0,.65.05,1,.08.73,0,1.48,0,2.25,0,1.53,0,3.11-.1,4.67-.17l9.46-.46c6.33-.29,12.67-.5,19-.52a308.56,308.56,0,0,1,38.06,1.86A234.6,234.6,0,0,1,576.08,207a173,173,0,0,1,35.58,14.36A143.51,143.51,0,0,1,642.86,244a140.49,140.49,0,0,1,23.93,30.41,177.77,177.77,0,0,1,15.29,35.5A280.86,280.86,0,0,1,691,347.3c2.17,12.62,3.59,25.33,4.58,38.06s1.48,25.5,1.52,38.26A631.68,631.68,0,0,1,692.64,500,559.77,559.77,0,0,1,679,575.69a322.89,322.89,0,0,1-11.85,37.21,167.55,167.55,0,0,1-8.46,18.3l-1.25,2.26c-.44.76-.9,1.5-1.31,2.28a47.73,47.73,0,0,0-2.27,4.94c-.76,1.74-1.29,3.62-2,5.67-.34,1-.55,2.11-.89,3.26a32.23,32.23,0,0,0-.82,3.75Z" transform="translate(-151.81 -54.69)"/><path class="cls-2" d="M666.43,559.79a8.86,8.86,0,0,0,4,2.49,7.71,7.71,0,0,0,2.11.44,12.44,12.44,0,0,0,2.11.07,14.3,14.3,0,0,0,4.09-.93c.66-.24,1.3-.54,1.94-.84l1.91-1a147.49,147.49,0,0,0,15.18-9.13,301.31,301.31,0,0,0,28.85-22.65A544.92,544.92,0,0,0,778.81,475,619.74,619.74,0,0,0,824,415.24c13.82-20.81,26.29-42.57,36.3-65.4a272.5,272.5,0,0,0,12.75-35,182,182,0,0,0,4.22-18.07,143.66,143.66,0,0,0,2.19-18.33,134.43,134.43,0,0,0-3.39-36.68,137.65,137.65,0,0,0-13.32-34.5,167.76,167.76,0,0,0-21.64-30.31,217.33,217.33,0,0,0-27.25-25.7A305.73,305.73,0,0,0,783,129.72c-5.36-3.27-10.81-6.39-16.32-9.45l-8.29-4.56c-1.39-.77-2.78-1.54-4.17-2.37-.7-.41-1.4-.84-2.11-1.31-.37-.27-.71-.48-1.11-.83l-.29-.24c-.1-.08-.24-.23-.35-.34l-.17-.19a2.23,2.23,0,0,1-.2-.26,4.51,4.51,0,0,1-.42-.89l3.88-1a.73.73,0,0,0-.14-.37c-.07-.07,0,0,0,0l0,0s0,0,.07.08l.17.13c.19.17.52.39.79.58.6.4,1.25.8,1.91,1.19,1.32.79,2.69,1.55,4.06,2.31l8.3,4.57c5.54,3.07,11,6.22,16.46,9.53a309.36,309.36,0,0,1,31.43,21.56,233.37,233.37,0,0,1,28.15,25.85,173.16,173.16,0,0,1,22.77,30.89,143.54,143.54,0,0,1,14.68,35.64,140.92,140.92,0,0,1,4.42,38.44,178.57,178.57,0,0,1-5.6,38.24,282.21,282.21,0,0,1-12.07,36.51c-4.77,11.88-10.23,23.45-16.07,34.81S840.68,410.74,834,421.62a632,632,0,0,1-43.84,62.74,563.81,563.81,0,0,1-51.29,57.26,323.53,323.53,0,0,1-29.62,25.46,167.52,167.52,0,0,1-16.8,11.14l-2.25,1.27c-.77.41-1.55.81-2.31,1.26a46.65,46.65,0,0,0-4.52,3c-1.57,1.08-3,2.4-4.65,3.8-.83.7-1.57,1.51-2.47,2.3a35.41,35.41,0,0,0-2.66,2.76Z" transform="translate(-151.81 -54.69)"/><path class="cls-3" d="M473.74,782.63l-21,9.83a11.53,11.53,0,0,1-11.47-1l-19-13.25a11.51,11.51,0,0,1-4.89-10.42l2-23.07A11.49,11.49,0,0,1,426,735.3l21-9.83a11.5,11.5,0,0,1,11.47,1l19,13.24a11.52,11.52,0,0,1,4.88,10.42l-2,23.07A11.53,11.53,0,0,1,473.74,782.63Z" transform="translate(-151.81 -54.69)"/><path class="cls-3" d="M722.19,309l-21,9.83a11.53,11.53,0,0,1-11.47-1l-19-13.24a11.52,11.52,0,0,1-4.88-10.42l2-23.08a11.53,11.53,0,0,1,6.58-9.44l21-9.83a11.53,11.53,0,0,1,11.47,1l19,13.24a11.53,11.53,0,0,1,4.88,10.43l-2,23.07A11.53,11.53,0,0,1,722.19,309Z" transform="translate(-151.81 -54.69)"/><path class="cls-3" d="M774.59,487.92l-21,9.83a11.51,11.51,0,0,1-11.47-1l-19-13.24a11.52,11.52,0,0,1-4.89-10.42l2-23.07a11.52,11.52,0,0,1,6.59-9.45l21-9.82a11.51,11.51,0,0,1,11.47,1l19,13.25a11.49,11.49,0,0,1,4.89,10.42l-2,23.07A11.5,11.5,0,0,1,774.59,487.92Z" transform="translate(-151.81 -54.69)"/><path class="cls-3" d="M927.75,259l-21,9.83a11.48,11.48,0,0,1-11.47-1l-19-13.24a11.51,11.51,0,0,1-4.89-10.42l2-23.07a11.49,11.49,0,0,1,6.59-9.44l21-9.83a11.48,11.48,0,0,1,11.47,1l19,13.24a11.51,11.51,0,0,1,4.88,10.42l-2,23.07A11.5,11.5,0,0,1,927.75,259Z" transform="translate(-151.81 -54.69)"/><path class="cls-3" d="M434.3,220.91l-21,9.83a11.51,11.51,0,0,1-11.47-1l-19-13.24A11.52,11.52,0,0,1,378,206.1L380,183a11.52,11.52,0,0,1,6.59-9.45l21-9.83a11.53,11.53,0,0,1,11.47,1L438,178a11.49,11.49,0,0,1,4.89,10.42l-2,23.07A11.5,11.5,0,0,1,434.3,220.91Z" transform="translate(-151.81 -54.69)"/><path class="cls-3" d="M775.49,113.43l-21,9.83a11.5,11.5,0,0,1-11.47-1l-19-13.24a11.52,11.52,0,0,1-4.88-10.42l2-23.07a11.53,11.53,0,0,1,6.58-9.45l21-9.83a11.51,11.51,0,0,1,11.46,1l19,13.25A11.51,11.51,0,0,1,784,80.92l-2,23.07A11.5,11.5,0,0,1,775.49,113.43Z" transform="translate(-151.81 -54.69)"/><path class="cls-1" d="M479,208l-21,9.83a11.51,11.51,0,0,1-11.46-1l-19-13.24a11.52,11.52,0,0,1-4.88-10.42l2-23.08a11.51,11.51,0,0,1,6.58-9.44l21-9.83a11.53,11.53,0,0,1,11.47,1l19,13.24a11.53,11.53,0,0,1,4.88,10.43l-2,23.07A11.53,11.53,0,0,1,479,208Z" transform="translate(-151.81 -54.69)"/><path class="cls-1" d="M885.12,280.81l-21,9.83a11.53,11.53,0,0,1-11.47-1l-19-13.25A11.49,11.49,0,0,1,828.8,266l2-23.07a11.49,11.49,0,0,1,6.59-9.44l21-9.83a11.51,11.51,0,0,1,11.47,1l19,13.24a11.5,11.5,0,0,1,4.89,10.42l-2,23.07A11.53,11.53,0,0,1,885.12,280.81Z" transform="translate(-151.81 -54.69)"/><path class="cls-1" d="M794.23,557.51l-21,9.83a11.53,11.53,0,0,1-11.47-1l-19-13.24a11.52,11.52,0,0,1-4.89-10.43l2-23.07a11.53,11.53,0,0,1,6.58-9.44l21-9.83a11.53,11.53,0,0,1,11.47,1l19,13.24A11.51,11.51,0,0,1,802.79,525l-2,23.07A11.52,11.52,0,0,1,794.23,557.51Z" transform="translate(-151.81 -54.69)"/><path class="cls-4" d="M830.89,424.47l-21,9.83a11.53,11.53,0,0,1-11.47-1l-19-13.25a11.51,11.51,0,0,1-4.89-10.42l2-23.07a11.49,11.49,0,0,1,6.59-9.44l21-9.83a11.5,11.5,0,0,1,11.47,1l19,13.24A11.52,11.52,0,0,1,839.44,392l-2,23.07A11.53,11.53,0,0,1,830.89,424.47Z" transform="translate(-151.81 -54.69)"/><path class="cls-4" d="M503.8,209.87l-21,9.83a11.53,11.53,0,0,1-11.47-1l-19-13.25a11.51,11.51,0,0,1-4.88-10.42l2-23.07a11.5,11.5,0,0,1,6.58-9.44l21-9.83a11.51,11.51,0,0,1,11.47,1l19,13.24a11.52,11.52,0,0,1,4.89,10.42l-2,23.07A11.52,11.52,0,0,1,503.8,209.87Z" transform="translate(-151.81 -54.69)"/><path class="cls-4" d="M837.27,146.73l-21,9.83a11.51,11.51,0,0,1-11.46-1l-19-13.24A11.53,11.53,0,0,1,781,131.91l2-23.07a11.51,11.51,0,0,1,6.58-9.44l21-9.83a11.53,11.53,0,0,1,11.47,1l19,13.24a11.53,11.53,0,0,1,4.88,10.43l-2,23.07A11.53,11.53,0,0,1,837.27,146.73Z" transform="translate(-151.81 -54.69)"/><path class="cls-4" d="M638.34,608.24l-21,9.83a11.5,11.5,0,0,1-11.47-1l-19-13.24A11.51,11.51,0,0,1,582,593.43l2-23.07a11.53,11.53,0,0,1,6.58-9.45l21-9.82a11.5,11.5,0,0,1,11.47,1l19,13.25a11.51,11.51,0,0,1,4.88,10.42l-2,23.07A11.5,11.5,0,0,1,638.34,608.24Z" transform="translate(-151.81 -54.69)"/></g><path id="faceShape" class="cls-5" d="M459.23,306.59c-111.41-19-168.73,104.83-171.21,129-7.1,23.27-7.77,81.9-16.36,90.21-6.54,7.42-8.31,74.67-1.82,82.27s21.7,89.82,30.25,98.29c9.73,16.52,62.21,33.15,73,29.47,12.6,4.56,143-21,149.44-29.47s28.65-42.87,42.44-69.24c10.09-30.7,31.68-76.4,30.93-88.38S632,328.76,459.23,306.59Z" transform="translate(-151.81 -54.69)"/><g id="rightEye"><path id="Eye" class="cls-6" d="M288.59,490.34c-4.31,7.55,61,3.15,68.19-.37S317.48,463.15,288.59,490.34Z" transform="translate(-151.81 -54.69)"/><path id="lens" class="cls-7" d="M339.22,482.73a7.53,7.53,0,0,1,.18,3.17c-.62,4.53-1.83,7.27-12.39,7.93-10.83.74-11.67-.59-13.65-8.52-.36-5.71,5.21-8.34,12.6-8.17C333.53,477.76,338,478.68,339.22,482.73Z" transform="translate(-151.81 -54.69)"/><circle id="pupil" class="cls-8" cx="174.36" cy="431.69" r="4.22"/><path class="cls-9" d="M354.9,488.19c.26-1.26-1.46-2.59,1.16-2.05.76,2,1.54,2.19,1.28,3.45-1,.8-2.66.66-3.22,1.18C351.5,490.22,354.64,489.45,354.9,488.19Z" transform="translate(-151.81 -54.69)"/><path class="cls-10" d="M356.37,488.15a3.34,3.34,0,0,0-1-1.8,10.73,10.73,0,0,0-1.85-1.38,25.17,25.17,0,0,0-4.3-2,60.71,60.71,0,0,0-9.29-2.52,92.09,92.09,0,0,0-19.15-1.6,64.28,64.28,0,0,0-18.57,2.93c-5.8,1.94-11.07,5.21-13.85,9.88l-5.88-3.94a26.34,26.34,0,0,1,8.33-7.38,38.65,38.65,0,0,1,9.85-3.87,68.43,68.43,0,0,1,20.19-1.6,94.19,94.19,0,0,1,19.64,3.21,61.9,61.9,0,0,1,9.37,3.35,27,27,0,0,1,4.37,2.48,11.17,11.17,0,0,1,1.94,1.71,4.23,4.23,0,0,1,1.13,2.49Z" transform="translate(-151.81 -54.69)"/></g><g id="leftEye"><path id="Eye-2" data-name="Eye" class="cls-11" d="M509,512.73c2.74,10-75.8-13.42-83.39-19.71S524.48,484.62,509,512.73Z" transform="translate(-151.81 -54.69)"/><path id="lens-2" data-name="lens" class="cls-7" d="M463.06,494.22a8.53,8.53,0,0,0-1,3.65c-.4,5.42.37,8.89,13.17,12.19,13.12,3.45,14.5,2.11,19-6.63,1.92-6.56-4.25-11-13.38-12.53C471.32,489.81,465.62,489.81,463.06,494.22Z" transform="translate(-151.81 -54.69)"/><ellipse id="pupil-2" data-name="pupil" class="cls-8" cx="478.08" cy="501.6" rx="5.01" ry="5.3" transform="translate(-189.03 910.19) rotate(-88.33)"/><path class="cls-9" d="M428.39,492.36c.07-1.15,2.58-1.85-.78-2.05-1.53,1.5-2.54,1.49-2.61,2.63,1,.95,3,1.24,3.54,1.83C431.89,495,428.32,493.5,428.39,492.36Z" transform="translate(-151.81 -54.69)"/><path class="cls-10" d="M425.88,491.58l.65-.54a4.79,4.79,0,0,1,.68-.42,10.06,10.06,0,0,1,1.41-.67,14.59,14.59,0,0,1,1.44-.53,13.42,13.42,0,0,1,1.45-.45c2-.58,3.94-1,5.92-1.35a115,115,0,0,1,12-1.42,135.4,135.4,0,0,1,24.23.55,85.54,85.54,0,0,1,23.83,6.07,49.61,49.61,0,0,1,10.95,6.49,35,35,0,0,1,8.63,10l-6.26,3.31a28.29,28.29,0,0,0-6.46-8.47,43.31,43.31,0,0,0-9.23-6.29c-6.76-3.52-14.36-5.65-22.05-7.12a131.45,131.45,0,0,0-23.56-2.06,114.43,114.43,0,0,0-11.85.63c-2,.25-3.92.5-5.84.94-.48.09-1,.21-1.43.34s-.95.25-1.4.42a9.7,9.7,0,0,0-1.33.53,5.61,5.61,0,0,0-1.14.7Z" transform="translate(-151.81 -54.69)"/></g><g id="brows"><path id="rightEyebrow" class="cls-12" d="M349.67,432.7c1.08-3.56,8-11.43,6.14-13.5-3.92-6.75-59.46,7.07-60.22,8.86S349.67,432.7,349.67,432.7Z" transform="translate(-151.81 -54.69)"/><path id="leftEyebrow" class="cls-12" d="M445,412.13c-2.51,1.91-8.89,11.62-6.93,15,19.16-1.21,87.62,1.28,98.9,13.69C546.29,422.31,445,412.13,445,412.13Z" transform="translate(-151.81 -54.69)"/></g><path id="hair" class="cls-12" d="M301.72,401.62c3.34-3.39,6.58-2,11.16-5.35,4-2.87,3.61-11,1-21.21l4.06-2.19S364.56,371,351,334c-.51-1.41,6.61,9.55,7.73,8.53,1.94-1.76-4.63-10.62-4.63-10.62s52.74,51.29,42.14-12.75a10.11,10.11,0,0,0,1.48-8.43s44.48,54.83,43.93-2.41c4.4,3.22,1.54,3.68,1.54,3.68L455,318.34l7.79,2.7s-1.08-10.87,3.55-5-8.11-5.57-.25-3.88,6.43-3.33,8.32-2.93,1.94,6.36,8.07,5,2.8,5.91,7.37,5.62,5,3.62,9.14,8.6,4.5-3.78,5.81-3.86,6.72-1.32,5.31,6,5.61.74,3.76,6.11-.44,27.61,5.94,4-4.08,4.63,4.46,1.47S518,358,531.78,351.26,528,325,535.44,336s0,16.1,12.52,10.83-8.15,3.89-3.12,12.32,5.31-1.21,5,8.43-8.46,11.46-.27,9.63,18.78-14.3,8.19-1.82-10.85,8.11-8.43,11.89S542,393,547.29,397.94s-2.22,18.25-1,17,6.14,4.55,2.74,10.88-11,9.95-3.77,14.49-3.81-18.82-3.58,5.65,3.11-6.25-8.51,10.63-.34,1.5,3.09,7.3-5,4.08-5,4.08-10.47,7.33-3.75,10,.42,6.67,4.5,8.95-5.13,1.79,0,6.82-3.72,3.33.94,7.88-11.43-.91-5.15,8.49-7.15-2.44-1.84,5.54-4.5,18.68.34,19.23-8,4.43-.65,10.52-9.44,9.78-.51,12.71-5.67-3.69-2.19,4.89-5.58,17.46-2,18.11-5.79,5.18,1.29,13.48-8.45-6.32-2.7,7.24-3.57-5.93-2.5,5.79,5.1-4.69,3.09,3.51-5-1.56-7.31,5.75-10.79,10.9-4.88,14.46,1.69-1-.16,4.38-7.87.06-1.85,5.37,3.33-2-2.44,6.71,9.36,6,6.59,10.51S503,668.32,502.41,671s-7.82,2.68-4.69,8.6-6.14,8.7.77,12.2-2.71,7.6.71,11.32-4.5,6.92.74,11.58-3.29-1.8-3.05,6.93-4.61,4.66-4.37,10.33,5.43,8.4,5.88,13.62-12,3-8.25,10.14,9.25,7.29,4.32,10.66-4-.69-3.27,5.89-4.64-3.21-2.68,8,10.55,12.45,12.29,3.6-5.65-10.14-5.65-10.14,14.06,5.93,8.36-2.28,3.81-6.36,4.74-7.73,5.35-10-.63-10a4.66,4.66,0,0,1-1.74-9.07C510.6,743,512,738.75,509,736s-5.54-11.86-.68-10.75,14-16.94,1-13.29,1.63-3.93-.16-4.69,17-17,2.3-18.95.27-2.64.54-5.28,11.49,2.34,11.49-15.15-8.32-10.85,0-17.49.23-17.07,1.19-15.82,16.76,2.44,8.78-6.24-7.63-24-2.84-24.3,17.39-1.54,9.9-9.37-4.92-15.59-.65-17.31-3.27,10.56,1.59-2.43,3.91-21.23-.32-32.77-2-9.93,1.86-11.92-9.62-27.44-1.84-29.21,14.31-25.6,10.83-27.45-10.22-7.43-.83-13.1,6.86-18.12,7.55-21.05,12.29-22,.59-25.34,2-9.87.73-9.23,17.28,7.7,3.92-7.11,0,0,4.31-1.15.94-19.73,4.29-1.14-1.6,9.17-2.52,15.41,3.41,5.52.91,14.42-2.45,16.62,1.49,16.67-6.78,3.48-5.22,7.47-6.17,6.08-4.64,16.54-4,5.77-5,18.41-15,9.6-3.48,23.08-3.09,18.34,4,19.64-5.73,13,7,13.55,6.36,10.73,10.31,11S574,531.57,585,536.62s10.18,2.11,4.75,13,9.23-4.94,11.93-11.23,11.45-8.6,10-6.75,10.92,11.36-4.36-16,4.44,4.62-2.69,7.7-21,10.31-13.68-2.67-1.28-28.32-5.84-10.54-6.8,17-11.51,11.64,4-15.49-9.94-19,1.47-4.39,1.77-6.63,13.6-6.18,5.91-10.27-1.17-4.57,2.66-6.3,11.88-19.58,2.08-19,2-6.08,3.58-9.14,17.37.15,8-10.33-3.73,9.27,5.26,13.08-14.4,9.38-3.71,11.46-19,16.84-3.69,17.09-3.77,2.21,2.52,12.32,5.32,17.43,7.49,21.39-6.84,4.46-2.55,9,3.83,16,14.41,12.65,46.76-9.58,8.09,54.32-2.31,3.38-3.34,4.37-43.78,46.39-49.7,44.64-13.59,15.79-11,22.62-8,10.11-8,10.11L536.64,685s-13.5,17.92-13.3,22.72,10.76,5.88,10.18-10.26,9-10.19,9-10.19-1.78,20.34,5.72,14.56,3.35,4.54,8.52,3.34-5.59-12.32,3.18-12,8.17,11.73,4,21.61-2.48,27.31,4,9.83,12-19.59,7.56-7.06,7,7.43-3.39,15.52-14.54,37.2-1.78,29.4,16.38,1.15,12.76-7.8-10.46-13.33-2.35-16.47,23.25-26.38,20.16-13.07,10.75,4.13,1.1,17.42-17.86,35.67-6.44,26.2,5.17-4.7,7.26-13.14-2.68-6,4.21-8.57,1.2-2.7,4.9-13.43S631,697,626.5,702.07s-6.3,10.89-6.13,27.49,6.12.05,6.12.05l7.73-9.21.7-9.68,4.53,9.35,4,8s15.21,5.6,7,7-24.44-1.52-25.4,8.59-11.79,16.49.69,10.89,26.23-9.52,18.38-16,18.22,1,9.78,11.18-16.94,20.75-7.94,18,7.34-12.26,10.24-12.88,3.47,8.52,9.61-5S683.5,739.13,680,732.79s1-6.62-.26-12.22-2.75-7.7,2.42-8.9-8.85-15.62,3.94-13.8,21.92,7.8,20-2.14,1.94-24.61,4.92-12.11,25.86,8,19.46,3.58a171.88,171.88,0,0,0-15.44-9.08s-5.4-16.28,2.8-11.11,22.39-12.34,15-11.88-30-4.06-24.49-13.89,2.23-27.11,5.51-9.83,12.12,25.9,9,17.36-1,5.62-4.59-17.26S702.42,601.76,706.83,617s-18-1.93-8.39-12.37,12.57,23,9.76-.62,16,45.58,12.87,9.91-6-18.85-6-18.85l-1.18-11.75s-1.83-22.18-6.08-20.17S696.44,549.2,697,544s4.63-23.63-9.09-19.34-1.37-.87-13.25-15.86,6.26-11.68-11.25-18.92-10.29-10.68-10.29-10.68,7.57-11.73,2.29-12.15-5.88-3.17,1.42-5.3,2.34-11.43,1.33-13.56-2-11.53-2-11.53,6.63-5.81,4.1-11.33-6.45-12.16-6.45-12.16,7.06-5.92-.77-12.14a21,21,0,0,1-7.94-15s5.66-7.35-1.42-8.66-3.44-12.9-3.44-12.9.79-8.35-7.11-8.73-10.76-11.13-10.76-11.13,1.95-24.6-15.49-16.94-6.65-8.33-6.65-8.33,17.45-12.47-21.49-20.94-14.07-2.19-14.07-2.19,5.38-11.69-2.4-10.33-12.36-1.84-12.36-1.84-1.61-11.71-6.81-10.94-16.13,1-16.13,1-8.26-13.28-12.1-11.82-16.6,4-16.6,4-8.31-9.93-18.92-1.85-36.21,11.23-36.21,11.23-8.15-14.57-16.71-4.85l-8.57,9.72s3.15-14-7-7.43l-10.12,6.54-10.54-.64s-14.48-11.24-10.17,5.06S377.86,272,363.81,288c0,0-29.42-4.7-18.89,3.82s5.44,10.15-.31,7.89,3.76-7.45-5.75-2.26,10.14,16.39-2.15,13.24-14-1.56-12.57,1.55-1.66,2-2.44,7.28c0,0-3.62-4-6.26,4s-7-.72-2.67,9.79-5-16.88-12.24,11.56,3.79-18.6-11.42,13-3.48.22-3.48.22-12.34,3.11-11.74,8,7.36,13.82,4.22,13.14-17,5.74-11.72,15.9-7.68-10.89-5.94,12,1.25,1.38-2.76,2.51-4.55,15.59-4.68,13.63-12-.88-9.39,3.6,2.46,6.66-1.71,9.77-2.63,9.14-4.87,10.74-6.85,6.84-4.44,8.15-6.71-.16-6.36,10-1.85-6.19-3.56,8.29-.65-1-1.8,3.7a41.77,41.77,0,0,1-3.25,8.66s-2.64,8.94.44,7-5.44,10.74-3.13,10.35-4.68-.24-3.87,8,3.53,5.18,1.45,4.58-4.67-.15-4.4,4.2-7-.43-5.53,4.72a43.19,43.19,0,0,1,1.69,8.21s-.45,2.21-4.15,3.61-5.27,8.79-5.27,8.79l-8.89,7s-6.8,3-5.26,9.07-6.79-1.32-5.35,7.63-1.85,3-1.85,3-6.56,6.83-2.39,8.31-5,6.73-.78,7.92-3.49,8.68-.55,8.49-.5,4.11-.32,5.27-1,4.72.38,6.09-2.1-.45-.12,6.72-.75,14.66-3.1,14.5-6.51,3-5.15,6.13-5.7,2-4.29,5.9-1.36,10.78-2.56,10.27-4.84,6.43.55,8.71-2.45,2.49-2.45,2.49,11.25,21.44,15.6,7.18S164,652,174.58,658.57s-9-13.72-11.85-3,7.75-6.41-.75-7.28,5.8-.37,5.8-.37,7.36-8.21.37-8.1,12.92-9.16,4.09-9,3-3.69,3-3.69,13.61-15.43,2.66-13.28,2.47-2.49,2.47-2.49l3.53-8.68s-6.33,5.94-4.55,1.75,12.68-14.24,1.58-11.91,2.48-2.34,2.48-2.34,9.84-10.24,3.71-10.43-6.7-4.57-2.62-4.52,17.55-8.38,6.89-10.91S193,562.1,195,562s-1.71,14.39,2-.13,5.43-6.43,4-6.5,11-.57,14-13.29,2.38-8.59,4.92-9.78,8.3-2.42,9.35-13.56,1.95-6.06,1.95-6.06,14.34-13,3.46-19c6.3-11.1-3.83-10-4.28-7.91s40.5,9.1,14.59-22.79c12.13-12.13-1.65-3.1,1.36-1.54s33.77,27,17.19-23.24c11.86-6.12,3.19-.2,3.19-.2S300,451.87,279,420c12.12,2.23,17,.38,18.83-2.35C301.78,411.9,297.73,405.68,301.72,401.62Z" transform="translate(-151.81 -54.69)"/></svg>