<svg id="Layer_2" data-name="Layer 2" xmlns="http://www.w3.org/2000/svg" viewBox="0 0 945.96 1016.78"><defs><style>.cls-1{fill:none;}.cls-1,.cls-2,.cls-3{stroke:#000;stroke-miterlimit:10;stroke-width:10px;}.cls-3{fill:#310e31;}</style></defs><path id="head" class="cls-1" d="M458.63,893.44,543.5,852c87.28-61.7,126.26-104.71,164.19-226.24C736.94,640.31,756.46,562.42,775,543c20-52,20-123-16-112-9.34,5.87-18.78,6.76-27.83,12.91-16.34-99.64-95-141.78-187.67-126.91-147.09,23.61-344,.76-306.53,229.54a32.85,32.85,0,0,0,9.89,18.68C273,589.82,338.56,686,295.5,706.93,225.31,829.09,458.63,893.44,458.63,893.44Z" transform="translate(-201.95 -11.8)"/><path id="mask" class="cls-2" d="M302.46,702C330.51,681,695,469,695,469S587.93,665.45,705.64,632.23c9.27,103.92-179,267.88-250,257.21C402.36,873.38,232.31,805.53,302.46,702Z" transform="translate(-201.95 -11.8)"/><path id="hair" class="cls-3" d="M207,360,525,203,412,156l228,18L547,32,759,172,733,25l93,82v77l114-48-56,68s131-36,142-36c0,30-114,88-114,88l95,52-45,2s176,98,159,98-193-11-200-15,194,151,214,147c-10,12-221,.08-221,.08L959,596l-5,71-50-71,13,111-39,54,1,48,2,43L736,999l35-63-90,37s93-122,87-130c-7,8-123,113-123,113l27-59,40-267c56-12.26,150-292-17-161,1,1-40,249-40,249L607,535,595,852,521,499l-8,216S356.78,447.51,379.78,428.51C372.78,441.51,340,501,340,501l-42-37,19,77-34-55.33L276.36,509,263,537l6,76-22.3-94.54L211,628Z" transform="translate(-201.95 -11.8)"/></svg>