<svg xmlns="http://www.w3.org/2000/svg" viewBox="0 0 595.05 506.51"><defs><style>.cls-1{fill:#e0a283;}.cls-1,.cls-2,.cls-3,.cls-5,.cls-6{stroke:#000;stroke-miterlimit:10;stroke-width:0.25px;}.cls-2{fill:#e6ae92;}.cls-3{fill:#620012;}.cls-4,.cls-5{fill:#28190e;}.cls-6{fill:#010c22;}</style></defs><g id="plunge"><g id="arm"><path id="left" class="cls-1" d="M253.86,538.1c2.62,2.54,18.95,21.44,23.6,27s20.4,26.07,21.71,27.23a45.63,45.63,0,0,0,4.4,2.88c1.46,1,12.66,10.76,2.19,4.65-.88,1.31,8.29,9.16,6.4,10.18.25,1.89-1.31,4.66-3.2,4.08-4.08.72-11.53-14.08-12.84-17.71-4.8-3.2-24.18-17.38-28-23.91S250.48,559.79,241,544.64" transform="translate(-1.2 -336.69)"/></g><g id="leg"><path id="left-2" data-name="left" class="cls-2" d="M205.87,492.93c11.37,10.86,24,22.65,22.65-20,0,0-22.32-41-22.65-48,6.94-12.51,11.32-51.78,14.37-55.42,1.46-.87,6.68,3.91,7.75-5,0,0-3.4-8.57-5.4-9.44-.72-4.65.69-11.05-3.82-12.36-.14-3.2-.14-5.82-4.51-6-2.32,1.31,1.6,5.53,1.17,6.69.48,3.17-3,23.86-4.5,23.86-.36,2.9-17.47,47-19.5,48C186.19,432.67,201.25,492.25,205.87,492.93Z" transform="translate(-1.2 -336.69)"/></g><g id="BODy"><path id="torso" class="cls-2" d="M261.42,555.53c-.89.89-4.06,1.33-5.23,1.33a4.54,4.54,0,0,1-3.22-1.33L248.45,551a8.51,8.51,0,0,1-1.53.35c-28.14,3.49-28.87-24.44-32.8-31.42.29-1.89-1.16-5.53-9.45-23.27s7.85-29.24,20.8-23.86,4.51,33.46,7.71,39.57,22.83,16.87,24.69,32.26c0,0-.12.2-.35.54l3.9,3.89A4.57,4.57,0,0,1,261.42,555.53Z" transform="translate(-1.2 -336.69)"/><path id="trunk" class="cls-3" d="M247.57,552.67c-4.07-6.75-9.45-25.31-2.91-28.95-2.47-2.62-2.61-2-4.36-3.63-6.54-1.6-12.51-9.9-7.85-21s-.59-23.56-6.55-26.18c-.58,4.07,5,49.35-22.65,20,1.16,5.24,12.92,32.83,13.21,34.14C215.88,528.67,222.26,553.86,247.57,552.67Z" transform="translate(-1.2 -336.69)"/></g><g id="head"><path id="face" class="cls-2" d="M253.83,573.76c-3.27-2.94-8.93,4.82-6.18-4.53,2.84-9.64,11.09-24.27,19.27-24.27a18.62,18.62,0,0,1,18.62,18.62c0,9.1-8.12,13.92-17.1,15.27a9.65,9.65,0,0,1-5.75-.88,2.62,2.62,0,0,0-2.48-.34c-6.09,3.55-2.31-.87-4.49-2.13C255.67,575.48,253.88,573.79,253.83,573.76Z" transform="translate(-1.2 -336.69)"/><path id="hair" class="cls-4" d="M275.79,576.38c22.34-10.78.44-38.84-14-29.65-1.46.88,5.72,14.81,7.47,19.17C279.28,568.09,274.79,576.86,275.79,576.38Z" transform="translate(-1.2 -336.69)"/><path id="bun" class="cls-5" d="M283.9,547.87c-2.92,3.51-5.83.79-9.79-1.65-4.09-.8-4.72-1.5-3.51-4.86.74-2.06,3.84-2.15,7.79-.35S285.29,546.19,283.9,547.87Z" transform="translate(-1.2 -336.69)"/></g><g id="arm-2" data-name="arm"><path id="right" class="cls-2" d="M254.28,538.73c2.77,3,10.49,26.32,15.15,31.85s22.4,28.07,23.71,29.23,4.94-.14,6.4.88,12.65,10.76,2.18,4.65c-.87,1.31,8.29,9.16,6.4,10.18.26,1.89-1.31,4.66-3.2,4.07-4.07.73-13.53-12.07-14.84-15.7-4.8-3.2-26.18-19.38-30-25.91s-14.73-21.12-16.91-39" transform="translate(-1.2 -336.69)"/></g><g id="leg-2" data-name="leg"><path id="right-2" data-name="right" class="cls-2" d="M203.25,492.93c11.38,10.86,24,22.65,22.65-20,0,0-22.32-41-22.65-48,6.94-12.51-8.19-47.71-5.13-51.35,1.45-.87,11.64-6.69.87-12.36,0,0-2.76-.29-4.8-4.66-.73-4.65-1.6-6.69-6.11-8-.14-3.2-.14-5.81-4.51-6-2.32,1.31,1.6,5.53,1.17,6.69.48,3.17,5.52,22.11,4.07,22.11-.36,2.91,2,42.91,0,43.93C183.57,432.67,198.63,492.25,203.25,492.93Z" transform="translate(-1.2 -336.69)"/></g></g><g id="water"><path class="cls-6" d="M596.13,753a8.2,8.2,0,0,0-.85-.1c-18.95-.87-12.48-15.7-35.17-21.81S527,746.84,511.53,749.45s-8.15-35.78-15.62-23.86-40.53,21.25-59,19-11.18,18.78-24.13,19S355.89,725,339.6,725.6s-56.15,33.45-64.87,36.94-34.91,0-76.8-25.24-89,6-103.86,11.28c-14.63,5.17-60.68-38.91-92.74-16.67V843.07h594.8Z" transform="translate(-1.2 -336.69)"/></g></svg>